<?xml version="1.0" encoding="UTF-8"?>
<svg xmlns="http://www.w3.org/2000/svg" width="1493" height="378" viewBox="0 0 1493 378" fill="none">
  <g opacity="0.1" clip-path="url(#clip0_1389_20618)">
    <path d="M1069.8 169.371V345.315H1033V175.142L1069.8 169.371Z" fill="#FFD1B0"></path>
    <path d="M586.322 244.502V315.101H577.997V335.087L586.589 335.265L586.643 360.838L635.878 362.565V244.502H613.667H586.322Z" fill="#FFD1B0"></path>
    <path d="M329.735 368.315H326.538L326.609 353.63L373.632 203.759L381.892 74.3086L391.539 87.7153L397.632 126.107L391.023 133.902L392.214 204.523L392.16 204.718L360.61 341.431L516.282 354.287L516.015 357.484L356.649 344.308L388.998 204.185L387.808 132.748L394.239 125.165L388.501 88.9761L384.521 83.4358L376.794 204.363L376.741 204.54L329.735 354.358V368.315Z" fill="#FFD1B0"></path>
    <path d="M517.815 368.316H514.619V363.932L381.011 361.588L374.583 364.576V368.316H371.386V362.519L380.336 358.35H380.691L517.815 360.765V368.316Z" fill="#FFD1B0"></path>
    <path d="M323.088 338.799H-3.88428V341.865H323.088V338.799Z" fill="#FFD1B0"></path>
    <path d="M323.088 347.232H-3.88428V350.299H323.088V347.232Z" fill="#FFD1B0"></path>
    <path d="M310.055 368.314H306.855V358.526H275.69V368.314H272.49V355.281H310.055V368.314Z" fill="#FFD1B0"></path>
    <path d="M320.128 334.198H284.373L360.199 203.719L374.729 75.457L384.036 84.2243L381.851 86.5492L377.18 82.1656L363.308 204.748L289.932 331.004H318.121L363.538 236.338L366.416 237.723L320.128 334.198Z" fill="#FFD1B0"></path>
    <path d="M373.017 99.1292L-4.23546 194.973L-3.44758 198.071L373.805 102.228L373.017 99.1292Z" fill="#FFD1B0"></path>
    <path d="M371.604 111.462L-4.21245 211L-3.39323 214.091L372.423 114.553L371.604 111.462Z" fill="#FFD1B0"></path>
    <path d="M370.56 120.537L-4.24847 221.98L-3.41253 225.067L371.396 123.623L370.56 120.537Z" fill="#FFD1B0"></path>
    <path d="M369.64 128.224L-4.30199 235.551L-3.41928 238.624L370.523 131.298L369.64 128.224Z" fill="#FFD1B0"></path>
    <path d="M368.722 136.524L-4.28499 251.232L-3.34448 254.288L369.663 139.58L368.722 136.524Z" fill="#FFD1B0"></path>
    <path d="M367.816 144.227L-4.33501 264.885L-3.3482 267.926L368.803 147.268L367.816 144.227Z" fill="#FFD1B0"></path>
    <path d="M367.119 150.039L-4.309 277.955L-3.26712 280.978L368.161 153.062L367.119 150.039Z" fill="#FFD1B0"></path>
    <path d="M366.292 157.166L-4.36903 296.287L-3.24469 299.28L367.416 160.159L366.292 157.166Z" fill="#FFD1B0"></path>
    <path d="M365.443 164.249L-4.42156 315.281L-3.21198 318.241L366.653 167.209L365.443 164.249Z" fill="#FFD1B0"></path>
    <path d="M364.264 171.217L-4.40555 331.305L-3.13116 334.237L365.539 174.149L364.264 171.217Z" fill="#FFD1B0"></path>
    <path d="M363.851 177.953L25.7803 331.25L27.1017 334.162L365.173 180.865L363.851 177.953Z" fill="#FFD1B0"></path>
    <path d="M363.064 184.545L63.6273 331.246L65.035 334.117L364.472 187.416L363.064 184.545Z" fill="#FFD1B0"></path>
    <path d="M363.002 190.983L99.7263 331.328L101.231 334.149L364.507 193.804L363.002 190.983Z" fill="#FFD1B0"></path>
    <path d="M361.449 198.093L128.662 331.307L130.251 334.081L363.038 200.868L361.449 198.093Z" fill="#FFD1B0"></path>
    <path d="M360.808 202.936L162.942 331.383L164.684 334.064L362.55 205.617L360.808 202.936Z" fill="#FFD1B0"></path>
    <path d="M355.892 211.289L202.547 331.48L204.521 333.997L357.866 213.805L355.892 211.289Z" fill="#FFD1B0"></path>
    <path d="M350.519 220.443L237.946 331.607L240.193 333.882L352.767 222.718L350.519 220.443Z" fill="#FFD1B0"></path>
    <path d="M391.091 137.501L388.088 138.602L463.822 345.14L466.825 344.04L391.091 137.501Z" fill="#FFD1B0"></path>
    <path d="M393.852 128.943L391.06 130.504L511.327 345.35L514.118 343.788L393.852 128.943Z" fill="#FFD1B0"></path>
    <path d="M450.382 344.549H447.284V335.35H455.717V338.51H450.382V344.549Z" fill="#FFD1B0"></path>
    <path d="M492.516 344.549H489.327V338.51H471.433V335.35H492.516V344.549Z" fill="#FFD1B0"></path>
    <path d="M686.093 368.314H682.891V364.191L526 358.634V368.314H522.798V355.281L686.093 361.072V368.314Z" fill="#FFD1B0"></path>
    <path d="M526.027 348.766H522.798V333.434H557.297V336.654H526.027V348.766Z" fill="#FFD1B0"></path>
    <path d="M581.063 352.982H577.884V346.242H552.809V352.982H549.63V343.016H581.063V352.982Z" fill="#FFD1B0"></path>
    <path d="M567.02 336.883H563.814V184.378H594.68V177.805H617.479V241.23H614.273V181.003H597.887V187.576H567.02V336.883Z" fill="#FFD1B0"></path>
    <path d="M635.878 352.982H632.669V247.708H589.53V318.371H581.206V335.169H577.997V315.165H586.322V244.502H635.878V352.982Z" fill="#FFD1B0"></path>
    <path d="M644.385 352.983H641.244V333.434H651.977V336.662H644.385V352.983Z" fill="#FFD1B0"></path>
    <path d="M658.189 352.983H655.043V279.002H671.91V282.212H658.189V352.983Z" fill="#FFD1B0"></path>
    <path d="M668.606 275.551H665.393V259.068H671.909V262.311H668.606V275.551Z" fill="#FFD1B0"></path>
    <path d="M683.461 357.198H680.266V348.899L673.06 221.826L706.892 225.398V137.027L746.049 122.456L759.84 124.695L798.003 112.256L837.888 118.742V223.443L787.655 218.858V129.813H790.85V215.944L834.693 219.942V121.478L798.252 115.526L760.089 127.965L746.368 125.761L710.087 139.249V228.952L676.468 225.415L683.461 348.81V357.198Z" fill="#FFD1B0"></path>
    <path d="M837.121 221.494L836.285 119.861L798.237 113.789L761.56 126.218L759.691 318.866L830.285 317.214V221.281L837.121 221.494Z" fill="#FFD1B0"></path>
    <path d="M762.907 318.866H759.691V220.317L783.456 215.369V313.989H780.24V219.306L762.907 222.906V318.866Z" fill="#FFD1B0"></path>
    <path d="M706.928 368.316H703.726V349.533H807.606V352.708H706.928V368.316Z" fill="#FFD1B0"></path>
    <path d="M706.925 344.55H703.726V317.334H851.304V336.84H848.106V320.532H706.925V344.55Z" fill="#FFD1B0"></path>
    <path d="M831.754 221.502H828.688V314.266H831.754V221.502Z" fill="#FFD1B0"></path>
    <path d="M716.153 318.867H712.925V229.469L728.258 226.104V313.996H725.03V230.071L716.153 232.02V318.867Z" fill="#FFD1B0"></path>
    <path d="M741.729 314.267H738.607V221.887H753.174V225.091H741.729V314.267Z" fill="#FFD1B0"></path>
    <path d="M747.807 124.139H744.741V212.686H747.807V124.139Z" fill="#FFD1B0"></path>
    <path d="M761.608 126.057H758.541V184.321H761.608V126.057Z" fill="#FFD1B0"></path>
    <path d="M697.67 252.552H694.526V233.77H708.326V237.008H697.67V252.552Z" fill="#FFD1B0"></path>
    <path d="M689.159 323.467H685.96V243.866H675.742V240.67H689.159V323.467Z" fill="#FFD1B0"></path>
    <path d="M705.258 261.369H687.626V264.436H705.258V261.369Z" fill="#FFD1B0"></path>
    <path d="M878.519 315.801H852.066V294.077H836.354V290.885H855.262V312.609H878.519V315.801Z" fill="#FFD1B0"></path>
    <path d="M868.672 307.366H865.487V284.367H896.536V296.669H893.352V287.576H868.672V307.366Z" fill="#FFD1B0"></path>
    <path d="M885.561 323.466H882.353V301.617H906.502V319.018H903.294V304.838H885.561V323.466Z" fill="#FFD1B0"></path>
    <path d="M913.937 323.467H910.719V300.084H945.218V316.87H942.001V303.285H913.937V323.467Z" fill="#FFD1B0"></path>
    <path d="M954.418 321.934H920.685V325H954.418V321.934Z" fill="#FFD1B0"></path>
    <path d="M889.253 368.315H886.054V360.508L878.235 354.622H821.052L811.954 360.578V368.315H808.755V358.869L820.093 351.449H879.302L889.253 358.939V368.315Z" fill="#FFD1B0"></path>
    <path d="M913.916 368.315H910.719V343.016H1029.55V346.216H913.916V368.315Z" fill="#FFD1B0"></path>
    <path d="M1029.55 337.266H920.685V340.716H1029.55V337.266Z" fill="#FFD1B0"></path>
    <path d="M1029.55 330.367H920.685V333.434H1029.55V330.367Z" fill="#FFD1B0"></path>
    <path d="M1026.03 324.999H965.987C961.309 324.999 957.484 321.223 957.484 316.566C957.484 311.908 961.291 308.133 965.987 308.133H1026.03C1030.71 308.133 1034.53 311.908 1034.53 316.566C1034.53 321.223 1030.72 324.999 1026.03 324.999ZM965.987 311.326C963.07 311.326 960.704 313.673 960.704 316.566C960.704 319.459 963.07 321.806 965.987 321.806H1026.03C1028.95 321.806 1031.31 319.459 1031.31 316.566C1031.31 313.673 1028.95 311.326 1026.03 311.326H965.987Z" fill="#FFD1B0"></path>
    <path d="M1036.06 368.314H1032.86V144.863H1027.53V123.112H1020.41V111.199L1003.31 106.742L988.028 110.346V124H980.022V147.082H976.019V303.276H972.817V143.886H976.82V120.804H984.826V107.825L1003.35 103.439L1023.61 108.748V119.916H1030.73V141.667H1036.06V368.314Z" fill="#FFD1B0"></path>
    <path d="M1036.96 368.316H1033.77V321.783H1042.2V317.334H1051.78V320.537H1045.39V324.986H1036.96V368.316Z" fill="#FFD1B0"></path>
    <path d="M1069.8 335.349H1066.6V173.097L1040.01 177.249L1039.52 174.091L1069.8 169.371V335.349Z" fill="#FFD1B0"></path>
    <path d="M1066.47 165.156H1063.28V85.8869L1107.02 74.4842C1108.4 74.0941 1120.85 70.7779 1125.88 74.5906C1127.32 75.6723 1128.06 77.2506 1128.06 79.1304V113.711H1124.87V79.1304C1124.87 78.2437 1124.59 77.623 1123.95 77.1265C1121.11 74.963 1112.57 76.2398 1107.83 77.5521L1066.45 88.3341V165.12L1066.47 165.156Z" fill="#FFD1B0"></path>
    <path d="M1149.91 335.331H1146.7V122.245C1138.86 111.216 1096.42 119.244 1080.57 123.311L1079.76 120.221C1085.89 118.64 1139.99 105.285 1149.68 120.931L1149.91 121.322V335.349V335.331Z" fill="#FFD1B0"></path>
    <path d="M1080.56 123.355L1079.76 120.251C1085.88 118.663 1139.86 105.249 1149.53 120.964L1146.81 122.659C1139.66 111.046 1096.56 119.234 1080.56 123.373V123.355Z" fill="#FFD1B0"></path>
    <path d="M1080.56 137.921L1079.76 134.817C1085.88 133.23 1139.86 119.815 1149.53 135.531L1146.81 137.225C1139.66 125.613 1096.56 133.8 1080.56 137.939V137.921Z" fill="#FFD1B0"></path>
    <path d="M1080.56 152.488L1079.76 149.384C1085.88 147.796 1139.86 134.382 1149.53 150.097L1146.81 151.792C1139.66 140.179 1096.56 148.367 1080.56 152.505V152.488Z" fill="#FFD1B0"></path>
    <path d="M1080.56 166.671L1079.76 163.567C1085.88 161.98 1139.86 148.565 1149.53 164.281L1146.81 165.975C1139.66 154.363 1096.56 162.55 1080.56 166.689V166.671Z" fill="#FFD1B0"></path>
    <path d="M1080.56 181.236L1079.76 178.132C1085.88 176.544 1139.86 163.13 1149.53 178.845L1146.81 180.54C1139.66 168.927 1096.56 177.115 1080.56 181.253V181.236Z" fill="#FFD1B0"></path>
    <path d="M1080.56 195.802L1079.76 192.698C1085.88 191.11 1139.86 177.696 1149.53 193.412L1146.81 195.106C1139.66 183.493 1096.56 191.681 1080.56 195.82V195.802Z" fill="#FFD1B0"></path>
    <path d="M1080.56 210.368L1079.76 207.265C1085.88 205.677 1139.86 192.262 1149.53 207.978L1146.81 209.673C1139.66 198.06 1096.56 206.248 1080.56 210.386V210.368Z" fill="#FFD1B0"></path>
    <path d="M1080.56 224.552L1079.76 221.568C1085.88 220.041 1139.86 207.143 1149.53 222.254L1146.81 223.883C1139.66 212.717 1096.56 220.59 1080.56 224.569V224.552Z" fill="#FFD1B0"></path>
    <path d="M1080.56 239.118L1079.76 236.015C1085.88 234.427 1139.86 221.012 1149.53 236.728L1146.81 238.423C1139.66 226.81 1096.56 234.998 1080.56 239.136V239.118Z" fill="#FFD1B0"></path>
    <path d="M1080.56 253.685L1079.76 250.581C1085.88 248.993 1139.86 235.579 1149.53 251.294L1146.81 252.989C1139.66 241.376 1096.56 249.564 1080.56 253.703V253.685Z" fill="#FFD1B0"></path>
    <path d="M1080.56 268.251L1079.76 265.147C1085.88 263.56 1139.86 250.145 1149.53 265.861L1146.81 267.556C1139.66 255.943 1096.56 264.131 1080.56 268.269V268.251Z" fill="#FFD1B0"></path>
    <path d="M1078.47 111.089L1077.85 107.926L1111.15 101.187C1126.88 98.7426 1135.33 99.138 1136.36 102.355C1137.13 104.781 1134.59 107.189 1127.27 110.963L1125.81 108.088C1130.97 105.446 1132.58 103.99 1133.08 103.379C1130.65 102.355 1120.43 103.038 1111.7 104.386L1078.47 111.107V111.089Z" fill="#FFD1B0"></path>
    <path d="M1078.47 96.9056L1077.85 93.848L1111.15 87.3333C1126.88 84.9706 1135.33 85.3528 1136.36 88.4625C1137.13 90.8078 1134.59 93.1357 1127.27 96.784L1125.81 94.0043C1130.97 91.4506 1132.58 90.0434 1133.08 89.4527C1130.65 88.4625 1120.43 89.1227 1111.7 90.4256L1078.47 96.9229V96.9056Z" fill="#FFD1B0"></path>
    <path d="M1188.24 290.885H1169.37V286.428H1148.38V283.219H1172.56V287.676H1188.24V290.885Z" fill="#FFD1B0"></path>
    <path d="M1207.79 305.834H1204.59V297.568H1148.38V294.334H1207.79V305.834Z" fill="#FFD1B0"></path>
    <path d="M1193.23 327.684H1153.74V330.75H1193.23V327.684Z" fill="#FFD1B0"></path>
    <path d="M1158.47 323.465H1155.28V308.096H1212.94V185.741L1236.54 181.637V211.523H1233.35V185.439L1216.14 188.442V311.294H1158.47V323.465Z" fill="#FFD1B0"></path>
    <path d="M1228.62 309.666H1225.43V216.138L1258.77 212.686V277.191H1255.58V216.244L1228.62 219.02V309.666Z" fill="#FFD1B0"></path>
    <path d="M1264.52 278.617H1261.33V82.6454L1222.87 92.7194V178.748H1219.68V90.2498L1264.52 78.5234V278.617Z" fill="#FFD1B0"></path>
    <path d="M1291.74 190.837L1270.65 187.709V186.322L1270.21 80.5537H1273.42L1273.85 184.936L1288.52 187.14V76.9629L1273.17 73.7454L1242.24 80.7848L1241.52 77.6562L1273.14 70.4746L1291.74 74.3676V190.837Z" fill="#FFD1B0"></path>
    <path d="M1286.37 188.92H1282.92V312.349H1286.37V188.92Z" fill="#FFD1B0"></path>
    <path d="M1391.02 368.316H1387.82V357.364H1338.63V368.316H1335.44V354.133H1391.02V368.316Z" fill="#FFD1B0"></path>
    <path d="M1424.75 368.315H1421.56V337.017H1357.8V350.977H1354.6V333.816H1424.75V368.315Z" fill="#FFD1B0"></path>
    <path d="M1391.02 329.216H1387.84V314.056H1377.33V329.216H1374.15V310.816H1391.02V329.216Z" fill="#FFD1B0"></path>
    <path d="M1453.88 368.316H1450.68V307.124H1397.29V329.125H1394.09V303.918H1453.88V368.316Z" fill="#FFD1B0"></path>
    <path d="M1425.52 298.934H1422.31V284.507H1403.04V298.934H1399.84V281.301H1425.52V298.934Z" fill="#FFD1B0"></path>
    <path d="M1332.5 368.315H1329.3V319.25H1369.55V322.451H1332.5V368.315Z" fill="#FFD1B0"></path>
    <path d="M1162.94 341.865H1042.58V345.315H1162.94V341.865Z" fill="#FFD1B0"></path>
    <path d="M1239.23 368.316H1236.03V363.648H1212.95V357.364H1140.24V363.648H1094.08V368.316H1090.88V360.416H1137.04V354.133H1216.14V360.416H1239.23V368.316Z" fill="#FFD1B0"></path>
    <path d="M1200.26 355.666H1197.06V321.934H1324.32V325.104H1200.26V355.666Z" fill="#FFD1B0"></path>
    <path d="M1303.62 319.25V314.297L1306.04 311.967L1308.61 314.452V319.25" fill="#FFD1B0"></path>
    <path d="M1198.59 319.25V316.123L1200.07 314.65L1201.66 316.222V319.25" fill="#FFD1B0"></path>
    <path d="M1218.14 319.25V314.297L1221.11 311.967L1224.28 314.452V319.25" fill="#FFD1B0"></path>
    <path d="M1245.74 319.25V314.297L1248.71 311.967L1251.87 314.452V319.25" fill="#FFD1B0"></path>
    <path d="M1310.91 319.25V314.297L1313.31 311.967L1315.89 314.452V319.25" fill="#FFD1B0"></path>
    <path d="M1317.8 319.25V314.297L1320.22 311.967L1322.79 314.452V319.25" fill="#FFD1B0"></path>
    <path d="M1241.91 316.184H1226.96V319.25H1241.91V316.184Z" fill="#FFD1B0"></path>
    <path d="M1297.87 316.184H1257.24V319.25H1297.87V316.184Z" fill="#FFD1B0"></path>
    <path d="M1262.99 312.35H1259.82V293.013C1259.82 291.264 1258.41 289.85 1256.66 289.85C1254.92 289.85 1253.51 291.264 1253.51 293.013V308.815H1250.34V293.013C1250.34 289.514 1253.18 286.668 1256.66 286.668C1260.15 286.668 1262.99 289.514 1262.99 293.013V312.35Z" fill="#FFD1B0"></path>
    <path d="M1277.95 281.684L1276.41 287.817H1277.95H1279.47L1277.95 281.684Z" fill="#FFD1B0"></path>
    <path d="M1296.83 312.35H1293.66V293.013C1293.66 289.514 1296.49 286.668 1299.98 286.668C1303.47 286.668 1306.31 289.514 1306.31 293.013V308.815H1303.13V293.013C1303.13 291.264 1301.72 289.85 1299.98 289.85C1298.24 289.85 1296.83 291.264 1296.83 293.013V312.35Z" fill="#FFD1B0"></path>
    <path d="M1299.97 281.684L1301.71 287.817H1299.97H1298.26L1299.97 281.684Z" fill="#FFD1B0"></path>
    <path d="M865.871 336.116H862.713V322.439H855.521V319.25H865.871V336.116Z" fill="#FFD1B0"></path>
    <path d="M917.619 338.799H914.42V330.043H875.202V335.967H872.004V326.916H917.619V338.799Z" fill="#FFD1B0"></path>
    <path d="M908.035 347.615H904.83C904.83 344.549 901.981 342.064 898.49 342.064C895 342.064 892.151 344.549 892.151 347.615H888.945C888.945 344.549 886.096 342.064 882.606 342.064C879.115 342.064 876.266 344.549 876.266 347.615H873.06C873.06 344.549 870.211 342.064 866.721 342.064C863.23 342.064 860.381 344.549 860.381 347.615H857.176C857.176 344.549 854.327 342.064 850.836 342.064C847.346 342.064 844.497 344.549 844.497 347.615H841.291C841.291 344.549 838.442 342.064 834.952 342.064C831.461 342.064 828.612 344.549 828.612 347.615H825.406C825.406 344.549 822.557 342.064 819.067 342.064C815.577 342.064 812.727 344.549 812.727 347.615H809.522C809.522 342.753 813.814 338.799 819.067 338.799C822.379 338.799 825.3 340.359 827.009 342.735C828.719 340.377 831.639 338.799 834.952 338.799C838.264 338.799 841.184 340.359 842.894 342.735C844.603 340.377 847.524 338.799 850.836 338.799C854.148 338.799 857.069 340.359 858.779 342.735C860.488 340.377 863.409 338.799 866.721 338.799C870.033 338.799 872.954 340.359 874.663 342.735C876.373 340.377 879.293 338.799 882.606 338.799C885.918 338.799 888.838 340.359 890.548 342.735C892.257 340.377 895.178 338.799 898.49 338.799C903.761 338.799 908.035 342.753 908.035 347.615Z" fill="#FFD1B0"></path>
    <path d="M599.994 352.983H596.779V252.885H611.963V246.42H615.178V256.099H599.994V352.983Z" fill="#233187"></path>
    <path d="M573.78 192.754H571.097V200.804H573.78V192.754Z" fill="#FFD1B0"></path>
    <path d="M579.146 192.754H576.846V200.804H579.146V192.754Z" fill="#FFD1B0"></path>
    <path d="M584.513 192.754H582.213V200.804H584.513V192.754Z" fill="#FFD1B0"></path>
    <path d="M590.262 192.754H587.579V200.804H590.262V192.754Z" fill="#FFD1B0"></path>
    <path d="M595.629 192.754H592.946V200.804H595.629V192.754Z" fill="#FFD1B0"></path>
    <path d="M605.978 259.068H603.678V267.118H605.978V259.068Z" fill="#233187"></path>
    <path d="M611.728 259.068H609.045V267.118H611.728V259.068Z" fill="#233187"></path>
    <path d="M617.094 259.068H614.411V267.118H617.094V259.068Z" fill="#233187"></path>
    <path d="M622.462 259.068H620.162V267.118H622.462V259.068Z" fill="#233187"></path>
    <path d="M627.829 259.068H625.529V267.118H627.829V259.068Z" fill="#233187"></path>
    <path d="M605.978 272.867H603.678V280.917H605.978V272.867Z" fill="#233187"></path>
    <path d="M611.728 272.867H609.045V280.917H611.728V272.867Z" fill="#233187"></path>
    <path d="M617.094 272.867H614.411V280.917H617.094V272.867Z" fill="#233187"></path>
    <path d="M622.462 272.867H620.162V280.917H622.462V272.867Z" fill="#233187"></path>
    <path d="M627.829 272.867H625.529V280.917H627.829V272.867Z" fill="#233187"></path>
    <path d="M605.978 286.668H603.678V294.718H605.978V286.668Z" fill="#233187"></path>
    <path d="M611.728 286.668H609.045V294.718H611.728V286.668Z" fill="#233187"></path>
    <path d="M617.094 286.668H614.411V294.718H617.094V286.668Z" fill="#233187"></path>
    <path d="M622.462 286.668H620.162V294.718H622.462V286.668Z" fill="#233187"></path>
    <path d="M627.829 286.668H625.529V294.718H627.829V286.668Z" fill="#233187"></path>
    <path d="M605.978 300.467H603.678V308.133H605.978V300.467Z" fill="#233187"></path>
    <path d="M611.728 300.467H609.045V308.133H611.728V300.467Z" fill="#233187"></path>
    <path d="M617.094 300.467H614.411V308.133H617.094V300.467Z" fill="#233187"></path>
    <path d="M622.462 300.467H620.162V308.133H622.462V300.467Z" fill="#233187"></path>
    <path d="M627.829 300.467H625.529V308.133H627.829V300.467Z" fill="#233187"></path>
    <path d="M605.978 314.268H603.678V321.934H605.978V314.268Z" fill="#233187"></path>
    <path d="M611.728 314.268H609.045V321.934H611.728V314.268Z" fill="#233187"></path>
    <path d="M617.094 314.268H614.411V321.934H617.094V314.268Z" fill="#233187"></path>
    <path d="M622.462 314.268H620.162V321.934H622.462V314.268Z" fill="#233187"></path>
    <path d="M627.829 314.268H625.529V321.934H627.829V314.268Z" fill="#233187"></path>
    <path d="M605.978 327.684H603.678V335.733H605.978V327.684Z" fill="#233187"></path>
    <path d="M611.728 327.684H609.045V335.733H611.728V327.684Z" fill="#233187"></path>
    <path d="M617.094 327.684H614.411V335.733H617.094V327.684Z" fill="#233187"></path>
    <path d="M622.462 327.684H620.162V335.733H622.462V327.684Z" fill="#233187"></path>
    <path d="M627.829 327.684H625.529V335.733H627.829V327.684Z" fill="#233187"></path>
    <path d="M605.978 341.482H603.678V349.532H605.978V341.482Z" fill="#233187"></path>
    <path d="M611.728 341.482H609.045V349.532H611.728V341.482Z" fill="#233187"></path>
    <path d="M617.094 341.482H614.411V349.532H617.094V341.482Z" fill="#233187"></path>
    <path d="M622.462 341.482H620.162V349.532H622.462V341.482Z" fill="#233187"></path>
    <path d="M627.829 341.482H625.529V349.532H627.829V341.482Z" fill="#233187"></path>
    <path d="M599.845 213.837V216.137H611.728V213.837H599.845Z" fill="#FFD1B0"></path>
    <path d="M599.845 209.237V211.537H611.728V209.237H599.845Z" fill="#FFD1B0"></path>
    <path d="M599.845 204.638V206.938H611.728V204.638H599.845Z" fill="#FFD1B0"></path>
    <path d="M599.845 200.421V202.338H611.728V200.421H599.845Z" fill="#FFD1B0"></path>
    <path d="M599.845 195.82V197.736H611.728V195.82H599.845Z" fill="#FFD1B0"></path>
    <path d="M599.845 226.87V229.17H611.728V226.87H599.845Z" fill="#FFD1B0"></path>
    <path d="M599.845 222.27V224.57H611.728V222.27H599.845Z" fill="#FFD1B0"></path>
    <path d="M599.845 236.452V238.752H611.728V236.452H599.845Z" fill="#FFD1B0"></path>
    <path d="M599.845 232.236V234.152H611.728V232.236H599.845Z" fill="#FFD1B0"></path>
    <path d="M573.78 205.787H571.097V213.837H573.78V205.787Z" fill="#FFD1B0"></path>
    <path d="M579.146 205.787H576.846V213.837H579.146V205.787Z" fill="#FFD1B0"></path>
    <path d="M584.513 205.787H582.213V213.837H584.513V205.787Z" fill="#FFD1B0"></path>
    <path d="M590.262 205.787H587.579V213.837H590.262V205.787Z" fill="#FFD1B0"></path>
    <path d="M595.629 205.787H592.946V213.837H595.629V205.787Z" fill="#FFD1B0"></path>
    <path d="M573.78 218.436H571.097V226.485H573.78V218.436Z" fill="#FFD1B0"></path>
    <path d="M579.146 218.436H576.846V226.485H579.146V218.436Z" fill="#FFD1B0"></path>
    <path d="M584.513 218.436H582.213V226.485H584.513V218.436Z" fill="#FFD1B0"></path>
    <path d="M590.262 218.436H587.579V226.485H590.262V218.436Z" fill="#FFD1B0"></path>
    <path d="M595.629 218.436H592.946V226.485H595.629V218.436Z" fill="#FFD1B0"></path>
    <path d="M573.78 231.469H571.097V239.518H573.78V231.469Z" fill="#FFD1B0"></path>
    <path d="M579.146 231.469H576.846V239.518H579.146V231.469Z" fill="#FFD1B0"></path>
    <path d="M584.513 231.469H582.213V239.518H584.513V231.469Z" fill="#FFD1B0"></path>
    <path d="M590.262 231.469H587.579V239.518H590.262V231.469Z" fill="#FFD1B0"></path>
    <path d="M595.629 231.469H592.946V239.518H595.629V231.469Z" fill="#FFD1B0"></path>
    <path d="M573.78 244.502H571.097V252.552H573.78V244.502Z" fill="#FFD1B0"></path>
    <path d="M579.146 244.502H576.846V252.552H579.146V244.502Z" fill="#FFD1B0"></path>
    <path d="M573.78 257.152H571.097V265.202H573.78V257.152Z" fill="#FFD1B0"></path>
    <path d="M579.146 257.152H576.846V265.202H579.146V257.152Z" fill="#FFD1B0"></path>
    <path d="M573.78 270.186H571.097V278.235H573.78V270.186Z" fill="#FFD1B0"></path>
    <path d="M579.146 270.186H576.846V278.235H579.146V270.186Z" fill="#FFD1B0"></path>
    <path d="M573.78 282.834H571.097V290.884H573.78V282.834Z" fill="#FFD1B0"></path>
    <path d="M579.146 282.834H576.846V290.884H579.146V282.834Z" fill="#FFD1B0"></path>
    <path d="M573.78 295.867H571.097V303.917H573.78V295.867Z" fill="#FFD1B0"></path>
    <path d="M579.146 295.867H576.846V303.917H579.146V295.867Z" fill="#FFD1B0"></path>
    <path d="M573.78 308.9H571.097V316.567H573.78V308.9Z" fill="#FFD1B0"></path>
    <path d="M573.78 321.551H571.097V329.601H573.78V321.551Z" fill="#FFD1B0"></path>
    <path d="M575.697 348.766H557.297V351.066H575.697V348.766Z" fill="#FFD1B0"></path>
    <path d="M533.531 339.566H529.315V340.716H533.531V339.566Z" fill="#FFD1B0"></path>
    <path d="M540.814 339.566H536.598V340.716H540.814V339.566Z" fill="#FFD1B0"></path>
    <path d="M533.531 343.398H529.315V344.548H533.531V343.398Z" fill="#FFD1B0"></path>
    <path d="M540.814 343.398H536.598V344.548H540.814V343.398Z" fill="#FFD1B0"></path>
    <path d="M533.531 347.232H529.315V348.766H533.531V347.232Z" fill="#FFD1B0"></path>
    <path d="M540.814 347.232H536.598V348.766H540.814V347.232Z" fill="#FFD1B0"></path>
    <path d="M548.097 339.566H543.881V340.716H548.097V339.566Z" fill="#FFD1B0"></path>
    <path d="M555.38 339.566H551.164V340.716H555.38V339.566Z" fill="#FFD1B0"></path>
    <path d="M671.91 285.518H656.577V287.434H671.91V285.518Z" fill="#FFD1B0"></path>
    <path d="M671.91 291.268H656.577V292.801H671.91V291.268Z" fill="#FFD1B0"></path>
    <path d="M671.91 296.635H656.577V298.551H671.91V296.635Z" fill="#FFD1B0"></path>
    <path d="M674.593 302.385H656.577V303.918H674.593V302.385Z" fill="#FFD1B0"></path>
    <path d="M674.593 307.75H656.577V309.667H674.593V307.75Z" fill="#FFD1B0"></path>
    <path d="M674.593 313.5H656.577V315.033H674.593V313.5Z" fill="#FFD1B0"></path>
    <path d="M674.593 318.867H656.577V320.784H674.593V318.867Z" fill="#FFD1B0"></path>
    <path d="M674.593 324.617H656.577V326.15H674.593V324.617Z" fill="#FFD1B0"></path>
    <path d="M676.893 329.982H656.577V331.899H676.893V329.982Z" fill="#FFD1B0"></path>
    <path d="M676.893 335.732H656.577V337.266H676.893V335.732Z" fill="#FFD1B0"></path>
    <path d="M676.893 341.1H656.577V343.016H676.893V341.1Z" fill="#FFD1B0"></path>
    <path d="M676.893 346.85H656.577V348.383H676.893V346.85Z" fill="#FFD1B0"></path>
    <path d="M648.911 339.566H646.611V341.483H648.911V339.566Z" fill="#FFD1B0"></path>
    <path d="M651.978 339.566H649.678V341.483H651.978V339.566Z" fill="#FFD1B0"></path>
    <path d="M648.911 343.398H646.611V345.698H648.911V343.398Z" fill="#FFD1B0"></path>
    <path d="M651.978 343.398H649.678V345.698H651.978V343.398Z" fill="#FFD1B0"></path>
    <path d="M648.911 347.615H646.611V349.915H648.911V347.615Z" fill="#FFD1B0"></path>
    <path d="M651.978 347.615H649.678V349.915H651.978V347.615Z" fill="#FFD1B0"></path>
    <path d="M696.443 268.268H694.143V271.334H696.443V268.268Z" fill="#FFD1B0"></path>
    <path d="M701.425 268.268H699.509V271.334H701.425V268.268Z" fill="#FFD1B0"></path>
    <path d="M706.792 268.268H704.492V271.334H706.792V268.268Z" fill="#FFD1B0"></path>
    <path d="M696.443 273.635H694.143V277.085H696.443V273.635Z" fill="#FFD1B0"></path>
    <path d="M701.425 273.635H699.509V277.085H701.425V273.635Z" fill="#FFD1B0"></path>
    <path d="M706.792 273.635H704.492V277.085H706.792V273.635Z" fill="#FFD1B0"></path>
    <path d="M696.443 279.002H694.143V282.452H696.443V279.002Z" fill="#FFD1B0"></path>
    <path d="M701.425 279.002H699.509V282.452H701.425V279.002Z" fill="#FFD1B0"></path>
    <path d="M706.792 279.002H704.492V282.452H706.792V279.002Z" fill="#FFD1B0"></path>
    <path d="M696.443 284.752H694.143V287.819H696.443V284.752Z" fill="#FFD1B0"></path>
    <path d="M701.425 284.752H699.509V287.819H701.425V284.752Z" fill="#FFD1B0"></path>
    <path d="M706.792 284.752H704.492V287.819H706.792V284.752Z" fill="#FFD1B0"></path>
    <path d="M696.443 290.117H694.143V293.184H696.443V290.117Z" fill="#FFD1B0"></path>
    <path d="M701.425 290.117H699.509V293.184H701.425V290.117Z" fill="#FFD1B0"></path>
    <path d="M706.792 290.117H704.492V293.184H706.792V290.117Z" fill="#FFD1B0"></path>
    <path d="M696.443 295.484H694.143V298.934H696.443V295.484Z" fill="#FFD1B0"></path>
    <path d="M701.425 295.484H699.509V298.934H701.425V295.484Z" fill="#FFD1B0"></path>
    <path d="M706.792 295.484H704.492V298.934H706.792V295.484Z" fill="#FFD1B0"></path>
    <path d="M696.443 301.234H694.143V304.301H696.443V301.234Z" fill="#FFD1B0"></path>
    <path d="M701.425 301.234H699.509V304.301H701.425V301.234Z" fill="#FFD1B0"></path>
    <path d="M706.792 301.234H704.492V304.301H706.792V301.234Z" fill="#FFD1B0"></path>
    <path d="M696.443 306.6H694.143V309.666H696.443V306.6Z" fill="#FFD1B0"></path>
    <path d="M701.425 306.6H699.509V309.666H701.425V306.6Z" fill="#FFD1B0"></path>
    <path d="M706.792 306.6H704.492V309.666H706.792V306.6Z" fill="#FFD1B0"></path>
    <path d="M696.443 311.967H694.143V315.417H696.443V311.967Z" fill="#FFD1B0"></path>
    <path d="M701.425 311.967H699.509V315.417H701.425V311.967Z" fill="#FFD1B0"></path>
    <path d="M706.792 311.967H704.492V315.417H706.792V311.967Z" fill="#FFD1B0"></path>
    <path d="M710.625 268.268H708.709V271.334H710.625V268.268Z" fill="#FFD1B0"></path>
    <path d="M710.625 273.635H708.709V277.085H710.625V273.635Z" fill="#FFD1B0"></path>
    <path d="M710.625 279.002H708.709V282.452H710.625V279.002Z" fill="#FFD1B0"></path>
    <path d="M710.625 284.752H708.709V287.819H710.625V284.752Z" fill="#FFD1B0"></path>
    <path d="M710.625 290.117H708.709V293.184H710.625V290.117Z" fill="#FFD1B0"></path>
    <path d="M710.625 295.484H708.709V298.934H710.625V295.484Z" fill="#FFD1B0"></path>
    <path d="M710.625 301.234H708.709V304.301H710.625V301.234Z" fill="#FFD1B0"></path>
    <path d="M710.625 306.6H708.709V309.666H710.625V306.6Z" fill="#FFD1B0"></path>
    <path d="M710.625 311.967H708.709V315.417H710.625V311.967Z" fill="#FFD1B0"></path>
    <path d="M696.443 317.334H694.143V320.784H696.443V317.334Z" fill="#FFD1B0"></path>
    <path d="M701.425 317.334H699.509V320.784H701.425V317.334Z" fill="#FFD1B0"></path>
    <path d="M696.443 323.084H694.143V326.151H696.443V323.084Z" fill="#FFD1B0"></path>
    <path d="M701.425 323.084H699.509V326.151H701.425V323.084Z" fill="#FFD1B0"></path>
    <path d="M696.443 328.449H694.143V331.516H696.443V328.449Z" fill="#FFD1B0"></path>
    <path d="M701.425 328.449H699.509V331.516H701.425V328.449Z" fill="#FFD1B0"></path>
    <path d="M696.443 333.816H694.143V337.266H696.443V333.816Z" fill="#FFD1B0"></path>
    <path d="M701.425 333.816H699.509V337.266H701.425V333.816Z" fill="#FFD1B0"></path>
    <path d="M696.443 339.566H694.143V342.633H696.443V339.566Z" fill="#FFD1B0"></path>
    <path d="M701.425 339.566H699.509V342.633H701.425V339.566Z" fill="#FFD1B0"></path>
    <path d="M734.391 129.123H731.325V221.503H734.391V129.123Z" fill="#FFD1B0"></path>
    <path d="M799.94 113.789H796.49V189.687H799.94V113.789Z" fill="#233187"></path>
    <path d="M808.372 115.322H805.306V142.921H808.372V115.322Z" fill="#233187"></path>
    <path d="M817.189 116.473H813.739V165.921H817.189V116.473Z" fill="#233187"></path>
    <path d="M824.855 118.006H821.405V187.387H824.855V118.006Z" fill="#233187"></path>
    <path d="M831.754 119.156H828.688V208.853H831.754V119.156Z" fill="#233187"></path>
    <path d="M793.423 217.67H789.974V271.335H793.423V217.67Z" fill="#233187"></path>
    <path d="M801.473 218.053H798.023V294.717H801.473V218.053Z" fill="#233187"></path>
    <path d="M808.372 218.82H805.306V244.503H808.372V218.82Z" fill="#233187"></path>
    <path d="M815.655 219.586H812.205V260.985H815.655V219.586Z" fill="#233187"></path>
    <path d="M823.705 220.354H820.255V273.635H823.705V220.354Z" fill="#233187"></path>
    <path d="M755.473 235.303H743.973V238.369H755.473V235.303Z" fill="#FFD1B0"></path>
    <path d="M755.473 240.67H743.973V243.736H755.473V240.67Z" fill="#FFD1B0"></path>
    <path d="M755.473 246.035H743.973V249.102H755.473V246.035Z" fill="#FFD1B0"></path>
    <path d="M755.473 251.402H743.973V254.469H755.473V251.402Z" fill="#FFD1B0"></path>
    <path d="M755.473 256.77H743.973V259.453H755.473V256.77Z" fill="#FFD1B0"></path>
    <path d="M755.473 262.135H743.973V264.818H755.473V262.135Z" fill="#FFD1B0"></path>
    <path d="M755.473 267.502H743.973V270.185H755.473V267.502Z" fill="#FFD1B0"></path>
    <path d="M755.473 272.867H743.973V275.55H755.473V272.867Z" fill="#FFD1B0"></path>
    <path d="M755.473 278.234H743.973V280.918H755.473V278.234Z" fill="#FFD1B0"></path>
    <path d="M755.473 283.602H743.973V286.285H755.473V283.602Z" fill="#FFD1B0"></path>
    <path d="M755.473 288.584H743.973V291.651H755.473V288.584Z" fill="#FFD1B0"></path>
    <path d="M755.473 293.951H743.973V297.018H755.473V293.951Z" fill="#FFD1B0"></path>
    <path d="M755.473 299.316H743.973V302.383H755.473V299.316Z" fill="#FFD1B0"></path>
    <path d="M755.473 304.684H743.973V307.75H755.473V304.684Z" fill="#FFD1B0"></path>
    <path d="M735.924 235.303H731.708V238.369H735.924V235.303Z" fill="#FFD1B0"></path>
    <path d="M735.924 240.67H731.708V243.736H735.924V240.67Z" fill="#FFD1B0"></path>
    <path d="M735.924 246.035H731.708V249.102H735.924V246.035Z" fill="#FFD1B0"></path>
    <path d="M735.924 251.402H731.708V254.469H735.924V251.402Z" fill="#FFD1B0"></path>
    <path d="M735.924 256.77H731.708V259.453H735.924V256.77Z" fill="#FFD1B0"></path>
    <path d="M735.924 262.135H731.708V264.818H735.924V262.135Z" fill="#FFD1B0"></path>
    <path d="M735.924 267.502H731.708V270.185H735.924V267.502Z" fill="#FFD1B0"></path>
    <path d="M735.924 272.867H731.708V275.55H735.924V272.867Z" fill="#FFD1B0"></path>
    <path d="M735.924 278.234H731.708V280.918H735.924V278.234Z" fill="#FFD1B0"></path>
    <path d="M735.924 283.602H731.708V286.285H735.924V283.602Z" fill="#FFD1B0"></path>
    <path d="M735.924 288.584H731.708V291.651H735.924V288.584Z" fill="#FFD1B0"></path>
    <path d="M735.924 293.951H731.708V297.018H735.924V293.951Z" fill="#FFD1B0"></path>
    <path d="M735.924 299.316H731.708V302.383H735.924V299.316Z" fill="#FFD1B0"></path>
    <path d="M735.924 304.684H731.708V307.75H735.924V304.684Z" fill="#FFD1B0"></path>
    <path d="M714.842 323.467H710.626V328.45H714.842V323.467Z" fill="#FFD1B0"></path>
    <path d="M720.591 323.467H716.758V328.45H720.591V323.467Z" fill="#FFD1B0"></path>
    <path d="M726.724 323.467H722.891V328.45H726.724V323.467Z" fill="#FFD1B0"></path>
    <path d="M805.306 335.35H710.626V337.266H805.306V335.35Z" fill="#FFD1B0"></path>
    <path d="M805.306 339.566H710.626V341.483H805.306V339.566Z" fill="#FFD1B0"></path>
    <path d="M805.306 343.783H710.626V345.7H805.306V343.783Z" fill="#FFD1B0"></path>
    <path d="M786.905 318.867H785.372V328.45H786.905V318.867Z" fill="#FFD1B0"></path>
    <path d="M792.657 318.867H790.74V328.45H792.657V318.867Z" fill="#FFD1B0"></path>
    <path d="M798.407 318.867H796.49V328.45H798.407V318.867Z" fill="#FFD1B0"></path>
    <path d="M803.772 318.867H802.239V328.45H803.772V318.867Z" fill="#FFD1B0"></path>
    <path d="M809.522 318.867H807.989V328.45H809.522V318.867Z" fill="#FFD1B0"></path>
    <path d="M815.272 318.867H813.356V328.45H815.272V318.867Z" fill="#FFD1B0"></path>
    <path d="M821.022 318.867H819.105V328.45H821.022V318.867Z" fill="#FFD1B0"></path>
    <path d="M826.772 318.867H824.855V328.45H826.772V318.867Z" fill="#FFD1B0"></path>
    <path d="M832.138 318.867H830.605V328.45H832.138V318.867Z" fill="#FFD1B0"></path>
    <path d="M837.887 318.867H835.971V328.45H837.887V318.867Z" fill="#FFD1B0"></path>
    <path d="M843.637 318.867H841.721V328.45H843.637V318.867Z" fill="#FFD1B0"></path>
    <path d="M821.021 360.648H816.038V363.715H821.021V360.648Z" fill="#FFD1B0"></path>
    <path d="M832.521 360.648H827.922V363.715H832.521V360.648Z" fill="#FFD1B0"></path>
    <path d="M840.571 360.648H835.588V363.715H840.571V360.648Z" fill="#FFD1B0"></path>
    <path d="M847.47 360.648H842.87V363.715H847.47V360.648Z" fill="#FFD1B0"></path>
    <path d="M854.371 360.648H849.771V363.715H854.371V360.648Z" fill="#FFD1B0"></path>
    <path d="M867.021 360.648H862.038V363.715H867.021V360.648Z" fill="#FFD1B0"></path>
    <path d="M878.903 360.648H873.92V363.715H878.903V360.648Z" fill="#FFD1B0"></path>
    <path d="M896.536 303.15H893.469V320.783H896.536V303.15Z" fill="#FFD1B0"></path>
    <path d="M934.485 301.234H931.418V311.967H934.485V301.234Z" fill="#FFD1B0"></path>
    <path d="M886.953 286.285H883.503V296.635H886.953V286.285Z" fill="#FFD1B0"></path>
    <path d="M842.104 292.418H839.037V309.667H842.104V292.418Z" fill="#FFD1B0"></path>
    <path d="M847.855 296.635H845.172V299.318H847.855V296.635Z" fill="#FFD1B0"></path>
    <path d="M847.855 302H845.172V304.683H847.855V302Z" fill="#FFD1B0"></path>
    <path d="M847.855 306.984H845.172V309.668H847.855V306.984Z" fill="#FFD1B0"></path>
    <path d="M873.92 290.5H871.236V293.183H873.92V290.5Z" fill="#FFD1B0"></path>
    <path d="M873.92 295.484H871.236V298.168H873.92V295.484Z" fill="#FFD1B0"></path>
    <path d="M873.92 300.852H871.236V303.535H873.92V300.852Z" fill="#FFD1B0"></path>
    <path d="M879.67 290.5H876.986V293.183H879.67V290.5Z" fill="#FFD1B0"></path>
    <path d="M879.67 295.484H876.986V298.168H879.67V295.484Z" fill="#FFD1B0"></path>
    <path d="M879.67 300.852H876.986V303.535H879.67V300.852Z" fill="#FFD1B0"></path>
    <path d="M919.152 305.451H916.469V308.134H919.152V305.451Z" fill="#FFD1B0"></path>
    <path d="M919.152 310.816H916.469V313.116H919.152V310.816Z" fill="#FFD1B0"></path>
    <path d="M919.152 315.801H916.469V318.484H919.152V315.801Z" fill="#FFD1B0"></path>
    <path d="M924.901 305.451H922.601V308.134H924.901V305.451Z" fill="#FFD1B0"></path>
    <path d="M924.901 310.816H922.601V313.116H924.901V310.816Z" fill="#FFD1B0"></path>
    <path d="M924.901 315.801H922.601V318.484H924.901V315.801Z" fill="#FFD1B0"></path>
    <path d="M1000.29 357.965H987.384V354.815H997.095V350.299H1029.55V353.449H1000.29V357.965Z" fill="#FFD1B0"></path>
    <path d="M993.516 360.648H990.066V368.315H993.516V360.648Z" fill="#FFD1B0"></path>
    <path d="M1004.25 360.648H1000.42V368.315H1004.25V360.648Z" fill="#FFD1B0"></path>
    <path d="M1014.6 360.648H1011.15V368.315H1014.6V360.648Z" fill="#FFD1B0"></path>
    <path d="M1025.33 360.648H1021.88V368.315H1025.33V360.648Z" fill="#FFD1B0"></path>
    <path d="M919.535 349.916H918.002V362.182H919.535V349.916Z" fill="#FFD1B0"></path>
    <path d="M925.669 349.916H924.135V362.182H925.669V349.916Z" fill="#FFD1B0"></path>
    <path d="M931.802 349.916H930.269V362.182H931.802V349.916Z" fill="#FFD1B0"></path>
    <path d="M937.934 349.916H936.018V362.182H937.934V349.916Z" fill="#FFD1B0"></path>
    <path d="M943.684 349.916H942.151V362.182H943.684V349.916Z" fill="#FFD1B0"></path>
    <path d="M949.817 349.916H948.284V362.182H949.817V349.916Z" fill="#FFD1B0"></path>
    <path d="M955.951 349.916H954.417V362.182H955.951V349.916Z" fill="#FFD1B0"></path>
    <path d="M962.084 349.916H960.55V362.182H962.084V349.916Z" fill="#FFD1B0"></path>
    <path d="M968.983 309.666H967.067V318.482H968.983V309.666Z" fill="#FFD1B0"></path>
    <path d="M976.267 309.666H974.351V318.482H976.267V309.666Z" fill="#FFD1B0"></path>
    <path d="M983.167 309.666H981.634V318.482H983.167V309.666Z" fill="#FFD1B0"></path>
    <path d="M990.45 309.666H988.533V318.482H990.45V309.666Z" fill="#FFD1B0"></path>
    <path d="M997.349 309.666H995.816V318.482H997.349V309.666Z" fill="#FFD1B0"></path>
    <path d="M1004.63 309.666H1002.72V318.482H1004.63V309.666Z" fill="#FFD1B0"></path>
    <path d="M1011.53 309.666H1010V318.482H1011.53V309.666Z" fill="#FFD1B0"></path>
    <path d="M1018.81 309.666H1016.9V318.482H1018.81V309.666Z" fill="#FFD1B0"></path>
    <path d="M1025.72 309.666H1024.18V318.482H1025.72V309.666Z" fill="#FFD1B0"></path>
    <path d="M1005.33 295.866H1002.13V139.777H1006.8V125.66H1000.8V104.973H1004V122.464H1010V142.974H1005.33V295.866Z" fill="#FFD1B0"></path>
    <path d="M983.166 155.188H979.333V161.321H983.166V155.188Z" fill="#FFD1B0"></path>
    <path d="M990.833 155.188H986.999V161.321H990.833V155.188Z" fill="#FFD1B0"></path>
    <path d="M998.5 155.188H994.666V161.321H998.5V155.188Z" fill="#FFD1B0"></path>
    <path d="M983.166 168.221H979.333V173.971H983.166V168.221Z" fill="#FFD1B0"></path>
    <path d="M990.833 168.221H986.999V173.971H990.833V168.221Z" fill="#FFD1B0"></path>
    <path d="M998.5 168.221H994.666V173.971H998.5V168.221Z" fill="#FFD1B0"></path>
    <path d="M983.166 180.871H979.333V187.004H983.166V180.871Z" fill="#FFD1B0"></path>
    <path d="M990.833 180.871H986.999V187.004H990.833V180.871Z" fill="#FFD1B0"></path>
    <path d="M998.5 180.871H994.666V187.004H998.5V180.871Z" fill="#FFD1B0"></path>
    <path d="M983.166 193.904H979.333V199.654H983.166V193.904Z" fill="#FFD1B0"></path>
    <path d="M990.833 193.904H986.999V199.654H990.833V193.904Z" fill="#FFD1B0"></path>
    <path d="M998.5 193.904H994.666V199.654H998.5V193.904Z" fill="#FFD1B0"></path>
    <path d="M983.166 206.553H979.333V212.303H983.166V206.553Z" fill="#FFD1B0"></path>
    <path d="M990.833 206.553H986.999V212.303H990.833V206.553Z" fill="#FFD1B0"></path>
    <path d="M998.5 206.553H994.666V212.303H998.5V206.553Z" fill="#FFD1B0"></path>
    <path d="M983.166 219.203H979.333V225.336H983.166V219.203Z" fill="#FFD1B0"></path>
    <path d="M990.833 219.203H986.999V225.336H990.833V219.203Z" fill="#FFD1B0"></path>
    <path d="M998.5 219.203H994.666V225.336H998.5V219.203Z" fill="#FFD1B0"></path>
    <path d="M983.166 238.752H979.333V244.885H983.166V238.752Z" fill="#FFD1B0"></path>
    <path d="M990.833 238.752H986.999V244.885H990.833V238.752Z" fill="#FFD1B0"></path>
    <path d="M998.5 238.752H994.666V244.885H998.5V238.752Z" fill="#FFD1B0"></path>
    <path d="M983.166 251.785H979.333V257.535H983.166V251.785Z" fill="#FFD1B0"></path>
    <path d="M990.833 251.785H986.999V257.535H990.833V251.785Z" fill="#FFD1B0"></path>
    <path d="M998.5 251.785H994.666V257.535H998.5V251.785Z" fill="#FFD1B0"></path>
    <path d="M983.166 264.436H979.333V270.569H983.166V264.436Z" fill="#FFD1B0"></path>
    <path d="M990.833 264.436H986.999V270.569H990.833V264.436Z" fill="#FFD1B0"></path>
    <path d="M998.5 264.436H994.666V270.569H998.5V264.436Z" fill="#FFD1B0"></path>
    <path d="M1004.63 277.469H1000.42V283.219H1004.63V277.469Z" fill="#FFD1B0"></path>
    <path d="M1012.3 277.469H1008.47V283.219H1012.3V277.469Z" fill="#FFD1B0"></path>
    <path d="M1019.96 277.469H1016.13V283.219H1019.96V277.469Z" fill="#FFD1B0"></path>
    <path d="M1004.63 290.117H1000.42V295.867H1004.63V290.117Z" fill="#FFD1B0"></path>
    <path d="M1012.3 290.117H1008.47V295.867H1012.3V290.117Z" fill="#FFD1B0"></path>
    <path d="M1019.96 290.117H1016.13V295.867H1019.96V290.117Z" fill="#FFD1B0"></path>
    <path d="M1013.45 155.188H1009.62V161.321H1013.45V155.188Z" fill="#FFD1B0"></path>
    <path d="M1021.11 155.188H1017.28V161.321H1021.11V155.188Z" fill="#FFD1B0"></path>
    <path d="M1028.78 155.188H1024.95V161.321H1028.78V155.188Z" fill="#FFD1B0"></path>
    <path d="M1013.45 168.221H1009.62V173.971H1013.45V168.221Z" fill="#FFD1B0"></path>
    <path d="M1021.11 168.221H1017.28V173.971H1021.11V168.221Z" fill="#FFD1B0"></path>
    <path d="M1028.78 168.221H1024.95V173.971H1028.78V168.221Z" fill="#FFD1B0"></path>
    <path d="M1013.45 180.871H1009.62V187.004H1013.45V180.871Z" fill="#FFD1B0"></path>
    <path d="M1021.11 180.871H1017.28V187.004H1021.11V180.871Z" fill="#FFD1B0"></path>
    <path d="M1028.78 180.871H1024.95V187.004H1028.78V180.871Z" fill="#FFD1B0"></path>
    <path d="M1013.45 193.904H1009.62V199.654H1013.45V193.904Z" fill="#FFD1B0"></path>
    <path d="M1021.11 193.904H1017.28V199.654H1021.11V193.904Z" fill="#FFD1B0"></path>
    <path d="M1028.78 193.904H1024.95V199.654H1028.78V193.904Z" fill="#FFD1B0"></path>
    <path d="M1013.45 206.553H1009.62V212.303H1013.45V206.553Z" fill="#FFD1B0"></path>
    <path d="M1021.11 206.553H1017.28V212.303H1021.11V206.553Z" fill="#FFD1B0"></path>
    <path d="M1028.78 206.553H1024.95V212.303H1028.78V206.553Z" fill="#FFD1B0"></path>
    <path d="M1013.45 219.203H1009.62V225.336H1013.45V219.203Z" fill="#FFD1B0"></path>
    <path d="M1021.11 219.203H1017.28V225.336H1021.11V219.203Z" fill="#FFD1B0"></path>
    <path d="M1028.78 219.203H1024.95V225.336H1028.78V219.203Z" fill="#FFD1B0"></path>
    <path d="M1013.45 238.752H1009.62V244.885H1013.45V238.752Z" fill="#FFD1B0"></path>
    <path d="M1021.11 238.752H1017.28V244.885H1021.11V238.752Z" fill="#FFD1B0"></path>
    <path d="M1028.78 238.752H1024.95V244.885H1028.78V238.752Z" fill="#FFD1B0"></path>
    <path d="M1013.45 251.785H1009.62V257.535H1013.45V251.785Z" fill="#FFD1B0"></path>
    <path d="M1021.11 251.785H1017.28V257.535H1021.11V251.785Z" fill="#FFD1B0"></path>
    <path d="M1028.78 251.785H1024.95V257.535H1028.78V251.785Z" fill="#FFD1B0"></path>
    <path d="M1013.45 264.436H1009.62V270.569H1013.45V264.436Z" fill="#FFD1B0"></path>
    <path d="M1021.11 264.436H1017.28V270.569H1021.11V264.436Z" fill="#FFD1B0"></path>
    <path d="M1028.78 264.436H1024.95V270.569H1028.78V264.436Z" fill="#FFD1B0"></path>
    <path d="M1034.91 277.469H1031.08V283.219H1034.91V277.469Z" fill="#FFD1B0"></path>
    <path d="M1042.58 277.469H1038.75V283.219H1042.58V277.469Z" fill="#FFD1B0"></path>
    <path d="M1050.25 277.469H1046.41V283.219H1050.25V277.469Z" fill="#FFD1B0"></path>
    <path d="M1034.91 290.117H1031.08V295.867H1034.91V290.117Z" fill="#FFD1B0"></path>
    <path d="M1042.58 290.117H1038.75V295.867H1042.58V290.117Z" fill="#FFD1B0"></path>
    <path d="M1050.25 290.117H1046.41V295.867H1050.25V290.117Z" fill="#FFD1B0"></path>
    <path d="M1044.5 193.904H1041.81V199.654H1044.5V193.904Z" fill="#233187"></path>
    <path d="M1050.63 193.904H1047.56V199.654H1050.63V193.904Z" fill="#233187"></path>
    <path d="M1056.38 193.904H1053.31V199.654H1056.38V193.904Z" fill="#233187"></path>
    <path d="M1062.13 193.904H1059.06V199.654H1062.13V193.904Z" fill="#233187"></path>
    <path d="M1044.5 209.619H1041.81V215.369H1044.5V209.619Z" fill="#233187"></path>
    <path d="M1050.63 209.619H1047.56V215.369H1050.63V209.619Z" fill="#233187"></path>
    <path d="M1056.38 209.619H1053.31V215.369H1056.38V209.619Z" fill="#233187"></path>
    <path d="M1062.13 209.619H1059.06V215.369H1062.13V209.619Z" fill="#233187"></path>
    <path d="M1044.5 225.336H1041.81V231.086H1044.5V225.336Z" fill="#233187"></path>
    <path d="M1050.63 225.336H1047.56V231.086H1050.63V225.336Z" fill="#233187"></path>
    <path d="M1056.38 225.336H1053.31V231.086H1056.38V225.336Z" fill="#233187"></path>
    <path d="M1062.13 225.336H1059.06V231.086H1062.13V225.336Z" fill="#233187"></path>
    <path d="M1044.5 241.053H1041.81V246.803H1044.5V241.053Z" fill="#233187"></path>
    <path d="M1050.63 241.053H1047.56V246.803H1050.63V241.053Z" fill="#233187"></path>
    <path d="M1056.38 241.053H1053.31V246.803H1056.38V241.053Z" fill="#233187"></path>
    <path d="M1062.13 241.053H1059.06V246.803H1062.13V241.053Z" fill="#233187"></path>
    <path d="M1044.5 256.77H1041.81V262.903H1044.5V256.77Z" fill="#233187"></path>
    <path d="M1050.63 256.77H1047.56V262.903H1050.63V256.77Z" fill="#233187"></path>
    <path d="M1056.38 256.77H1053.31V262.903H1056.38V256.77Z" fill="#233187"></path>
    <path d="M1062.13 256.77H1059.06V262.903H1062.13V256.77Z" fill="#233187"></path>
    <path d="M1044.5 272.484H1041.81V278.618H1044.5V272.484Z" fill="#233187"></path>
    <path d="M1050.63 272.484H1047.56V278.618H1050.63V272.484Z" fill="#233187"></path>
    <path d="M1056.38 272.484H1053.31V278.618H1056.38V272.484Z" fill="#233187"></path>
    <path d="M1062.13 272.484H1059.06V278.618H1062.13V272.484Z" fill="#233187"></path>
    <path d="M1044.5 288.201H1041.81V294.334H1044.5V288.201Z" fill="#233187"></path>
    <path d="M1050.63 288.201H1047.56V294.334H1050.63V288.201Z" fill="#233187"></path>
    <path d="M1056.38 288.201H1053.31V294.334H1056.38V288.201Z" fill="#233187"></path>
    <path d="M1062.13 288.201H1059.06V294.334H1062.13V288.201Z" fill="#233187"></path>
    <path d="M1044.5 303.918H1041.81V310.051H1044.5V303.918Z" fill="#233187"></path>
    <path d="M1050.63 303.918H1047.56V310.051H1050.63V303.918Z" fill="#233187"></path>
    <path d="M1056.38 303.918H1053.31V310.051H1056.38V303.918Z" fill="#233187"></path>
    <path d="M1062.13 303.918H1059.06V310.051H1062.13V303.918Z" fill="#233187"></path>
    <path d="M1044.5 320.016H1041.81V325.765H1044.5V320.016Z" fill="#233187"></path>
    <path d="M1050.63 320.016H1047.56V325.765H1050.63V320.016Z" fill="#233187"></path>
    <path d="M1056.38 320.016H1053.31V325.765H1056.38V320.016Z" fill="#233187"></path>
    <path d="M1062.13 320.016H1059.06V325.765H1062.13V320.016Z" fill="#233187"></path>
    <path d="M1230.41 89.2578H1227.34V161.705H1230.41V89.2578Z" fill="#FFD1B0"></path>
    <path d="M1238.46 87.3398H1235.01V121.839H1238.46V87.3398Z" fill="#FFD1B0"></path>
    <path d="M1246.12 85.4238H1243.06V168.604H1246.12V85.4238Z" fill="#FFD1B0"></path>
    <path d="M1254.17 83.125H1251.11V194.288H1254.17V83.125Z" fill="#FFD1B0"></path>
    <path d="M1279.09 205.404H1276.02V306.984H1279.09V205.404Z" fill="#FFD1B0"></path>
    <path d="M1271.42 205.404H1267.97V262.136H1271.42V205.404Z" fill="#FFD1B0"></path>
    <path d="M1222.74 185.854H1219.68V208.853H1222.74V185.854Z" fill="#FFD1B0"></path>
    <path d="M1230.41 184.703H1227.34V194.286H1230.41V184.703Z" fill="#FFD1B0"></path>
    <path d="M1234.62 217.287H1231.56V256.386H1234.62V217.287Z" fill="#FFD1B0"></path>
    <path d="M1241.91 217.287H1238.84V287.051H1241.91V217.287Z" fill="#FFD1B0"></path>
    <path d="M1249.19 215.752H1245.74V268.65H1249.19V215.752Z" fill="#FFD1B0"></path>
    <path d="M1067.11 347.998H1063.66V364.864H1067.11V347.998Z" fill="#FFD1B0"></path>
    <path d="M1074.01 347.998H1070.56V364.864H1074.01V347.998Z" fill="#FFD1B0"></path>
    <path d="M1080.91 347.998H1077.46V364.864H1080.91V347.998Z" fill="#FFD1B0"></path>
    <path d="M1087.81 347.998H1084.36V364.864H1087.81V347.998Z" fill="#FFD1B0"></path>
    <path d="M1099.7 351.832H1094.71V356.432H1099.7V351.832Z" fill="#FFD1B0"></path>
    <path d="M1110.43 351.832H1105.06V356.432H1110.43V351.832Z" fill="#FFD1B0"></path>
    <path d="M1120.78 351.832H1115.8V356.432H1120.78V351.832Z" fill="#FFD1B0"></path>
    <path d="M1131.51 351.832H1126.14V356.432H1131.51V351.832Z" fill="#FFD1B0"></path>
    <path d="M1160.26 334.199H1154.89V338.799H1160.26V334.199Z" fill="#FFD1B0"></path>
    <path d="M1170.61 334.199H1165.63V338.799H1170.61V334.199Z" fill="#FFD1B0"></path>
    <path d="M1181.34 334.199H1175.98V338.799H1181.34V334.199Z" fill="#FFD1B0"></path>
    <path d="M1191.69 334.199H1186.71V338.799H1191.69V334.199Z" fill="#FFD1B0"></path>
    <path d="M1168.31 316.184H1164.86V323.083H1168.31V316.184Z" fill="#FFD1B0"></path>
    <path d="M1174.83 316.184H1171.76V323.083H1174.83V316.184Z" fill="#FFD1B0"></path>
    <path d="M1181.73 316.184H1178.28V323.083H1181.73V316.184Z" fill="#FFD1B0"></path>
    <path d="M1188.24 316.184H1185.18V323.083H1188.24V316.184Z" fill="#FFD1B0"></path>
    <path d="M1166.78 300.467H1161.41V303.533H1166.78V300.467Z" fill="#FFD1B0"></path>
    <path d="M1177.51 300.467H1172.14V303.533H1177.51V300.467Z" fill="#FFD1B0"></path>
    <path d="M1187.86 300.467H1182.49V303.533H1187.86V300.467Z" fill="#FFD1B0"></path>
    <path d="M1198.59 300.467H1193.23V303.533H1198.59V300.467Z" fill="#FFD1B0"></path>
    <path d="M1216.99 323.084H1215.46V354.133H1216.99V323.084Z" fill="#FFD1B0"></path>
    <path d="M1225.04 323.084H1223.13V354.133H1225.04V323.084Z" fill="#FFD1B0"></path>
    <path d="M1245.74 323.084H1244.21V354.133H1245.74V323.084Z" fill="#FFD1B0"></path>
    <path d="M1253.79 323.084H1251.87V354.133H1253.79V323.084Z" fill="#FFD1B0"></path>
    <path d="M1322.79 333.049H1261.46V334.965H1322.79V333.049Z" fill="#FFD1B0"></path>
    <path d="M1322.79 337.648H1261.46V339.565H1322.79V337.648Z" fill="#FFD1B0"></path>
    <path d="M1322.79 351.066H1261.46V352.6H1322.79V351.066Z" fill="#FFD1B0"></path>
    <path d="M1322.79 355.666H1261.46V357.199H1322.79V355.666Z" fill="#FFD1B0"></path>
    <path d="M1240.37 333.049H1230.79V334.965H1240.37V333.049Z" fill="#FFD1B0"></path>
    <path d="M1240.37 337.648H1230.79V339.565H1240.37V337.648Z" fill="#FFD1B0"></path>
    <path d="M1240.37 351.066H1230.79V352.6H1240.37V351.066Z" fill="#FFD1B0"></path>
    <path d="M1240.37 355.666H1230.79V357.199H1240.37V355.666Z" fill="#FFD1B0"></path>
    <path d="M1336.2 325H1335.05V350.682H1336.2V325Z" fill="#FFD1B0"></path>
    <path d="M1340.04 325H1338.89V350.682H1340.04V325Z" fill="#FFD1B0"></path>
    <path d="M1344.25 325H1342.72V350.682H1344.25V325Z" fill="#FFD1B0"></path>
    <path d="M1348.09 325H1346.55V350.682H1348.09V325Z" fill="#FFD1B0"></path>
    <path d="M1351.92 325H1350.39V350.682H1351.92V325Z" fill="#FFD1B0"></path>
    <path d="M1358.82 325H1357.29V331.133H1358.82V325Z" fill="#FFD1B0"></path>
    <path d="M1362.65 325H1361.12V331.133H1362.65V325Z" fill="#FFD1B0"></path>
    <path d="M1366.49 325H1365.34V331.133H1366.49V325Z" fill="#FFD1B0"></path>
    <path d="M1380.67 316.949H1379.14V320.782H1380.67V316.949Z" fill="#FFD1B0"></path>
    <path d="M1385.27 316.949H1383.74V320.782H1385.27V316.949Z" fill="#FFD1B0"></path>
    <path d="M1380.67 322.699H1379.14V326.149H1380.67V322.699Z" fill="#FFD1B0"></path>
    <path d="M1385.27 322.699H1383.74V326.149H1385.27V322.699Z" fill="#FFD1B0"></path>
    <path d="M1370.32 325H1369.17V331.133H1370.32V325Z" fill="#FFD1B0"></path>
    <path d="M1363.42 339.566H1360.74V342.25H1363.42V339.566Z" fill="#FFD1B0"></path>
    <path d="M1369.17 339.566H1366.49V342.25H1369.17V339.566Z" fill="#FFD1B0"></path>
    <path d="M1375.3 339.566H1372.62V342.25H1375.3V339.566Z" fill="#FFD1B0"></path>
    <path d="M1381.44 339.566H1378.75V342.25H1381.44V339.566Z" fill="#FFD1B0"></path>
    <path d="M1387.19 339.566H1384.5V342.25H1387.19V339.566Z" fill="#FFD1B0"></path>
    <path d="M1393.32 339.566H1390.64V342.25H1393.32V339.566Z" fill="#FFD1B0"></path>
    <path d="M1399.07 339.566H1396.77V342.25H1399.07V339.566Z" fill="#FFD1B0"></path>
    <path d="M1405.2 339.566H1402.52V342.25H1405.2V339.566Z" fill="#FFD1B0"></path>
    <path d="M1411.34 339.566H1408.65V342.25H1411.34V339.566Z" fill="#FFD1B0"></path>
    <path d="M1417.09 339.566H1414.4V342.25H1417.09V339.566Z" fill="#FFD1B0"></path>
    <path d="M1363.42 344.549H1360.74V347.232H1363.42V344.549Z" fill="#FFD1B0"></path>
    <path d="M1369.17 344.549H1366.49V347.232H1369.17V344.549Z" fill="#FFD1B0"></path>
    <path d="M1375.3 344.549H1372.62V347.232H1375.3V344.549Z" fill="#FFD1B0"></path>
    <path d="M1381.44 344.549H1378.75V347.232H1381.44V344.549Z" fill="#FFD1B0"></path>
    <path d="M1387.19 344.549H1384.5V347.232H1387.19V344.549Z" fill="#FFD1B0"></path>
    <path d="M1393.32 344.549H1390.64V347.232H1393.32V344.549Z" fill="#FFD1B0"></path>
    <path d="M1399.07 344.549H1396.77V347.232H1399.07V344.549Z" fill="#FFD1B0"></path>
    <path d="M1405.2 344.549H1402.52V347.232H1405.2V344.549Z" fill="#FFD1B0"></path>
    <path d="M1411.34 344.549H1408.65V347.232H1411.34V344.549Z" fill="#FFD1B0"></path>
    <path d="M1417.09 344.549H1414.4V347.232H1417.09V344.549Z" fill="#FFD1B0"></path>
    <path d="M1363.42 349.533H1360.74V352.216H1363.42V349.533Z" fill="#FFD1B0"></path>
    <path d="M1369.17 349.533H1366.49V352.216H1369.17V349.533Z" fill="#FFD1B0"></path>
    <path d="M1375.3 349.533H1372.62V352.216H1375.3V349.533Z" fill="#FFD1B0"></path>
    <path d="M1381.44 349.533H1378.75V352.216H1381.44V349.533Z" fill="#FFD1B0"></path>
    <path d="M1387.19 349.533H1384.5V352.216H1387.19V349.533Z" fill="#FFD1B0"></path>
    <path d="M1393.32 349.533H1390.64V352.216H1393.32V349.533Z" fill="#FFD1B0"></path>
    <path d="M1399.07 349.533H1396.77V352.216H1399.07V349.533Z" fill="#FFD1B0"></path>
    <path d="M1405.2 349.533H1402.52V352.216H1405.2V349.533Z" fill="#FFD1B0"></path>
    <path d="M1411.34 349.533H1408.65V352.216H1411.34V349.533Z" fill="#FFD1B0"></path>
    <path d="M1417.09 349.533H1414.4V352.216H1417.09V349.533Z" fill="#FFD1B0"></path>
    <path d="M1399.07 354.516H1396.77V357.199H1399.07V354.516Z" fill="#FFD1B0"></path>
    <path d="M1405.2 354.516H1402.52V357.199H1405.2V354.516Z" fill="#FFD1B0"></path>
    <path d="M1411.34 354.516H1408.65V357.199H1411.34V354.516Z" fill="#FFD1B0"></path>
    <path d="M1417.09 354.516H1414.4V357.199H1417.09V354.516Z" fill="#FFD1B0"></path>
    <path d="M1399.07 359.498H1396.77V362.181H1399.07V359.498Z" fill="#FFD1B0"></path>
    <path d="M1405.2 359.498H1402.52V362.181H1405.2V359.498Z" fill="#FFD1B0"></path>
    <path d="M1411.34 359.498H1408.65V362.181H1411.34V359.498Z" fill="#FFD1B0"></path>
    <path d="M1417.09 359.498H1414.4V362.181H1417.09V359.498Z" fill="#FFD1B0"></path>
    <path d="M1399.07 364.482H1396.77V367.166H1399.07V364.482Z" fill="#FFD1B0"></path>
    <path d="M1405.2 364.482H1402.52V367.166H1405.2V364.482Z" fill="#FFD1B0"></path>
    <path d="M1411.34 364.482H1408.65V367.166H1411.34V364.482Z" fill="#FFD1B0"></path>
    <path d="M1417.09 364.482H1414.4V367.166H1417.09V364.482Z" fill="#FFD1B0"></path>
    <path d="M1430.88 309.283H1429.35V315.8H1430.88V309.283Z" fill="#FFD1B0"></path>
    <path d="M1434.33 309.283H1432.8V315.8H1434.33V309.283Z" fill="#FFD1B0"></path>
    <path d="M1437.78 309.283H1436.25V315.8H1437.78V309.283Z" fill="#FFD1B0"></path>
    <path d="M1441.23 309.283H1439.7V315.8H1441.23V309.283Z" fill="#FFD1B0"></path>
    <path d="M1444.69 309.283H1443.15V315.8H1444.69V309.283Z" fill="#FFD1B0"></path>
    <path d="M1448.13 309.283H1446.6V315.8H1448.13V309.283Z" fill="#FFD1B0"></path>
    <path d="M1430.88 319.25H1429.35V326.15H1430.88V319.25Z" fill="#FFD1B0"></path>
    <path d="M1434.33 319.25H1432.8V326.15H1434.33V319.25Z" fill="#FFD1B0"></path>
    <path d="M1437.78 319.25H1436.25V326.15H1437.78V319.25Z" fill="#FFD1B0"></path>
    <path d="M1441.23 319.25H1439.7V326.15H1441.23V319.25Z" fill="#FFD1B0"></path>
    <path d="M1401.75 309.283H1400.22V315.8H1401.75V309.283Z" fill="#FFD1B0"></path>
    <path d="M1405.2 309.283H1403.67V315.8H1405.2V309.283Z" fill="#FFD1B0"></path>
    <path d="M1408.65 309.283H1407.12V315.8H1408.65V309.283Z" fill="#FFD1B0"></path>
    <path d="M1412.1 309.283H1410.57V315.8H1412.1V309.283Z" fill="#FFD1B0"></path>
    <path d="M1401.75 319.25H1400.22V326.15H1401.75V319.25Z" fill="#FFD1B0"></path>
    <path d="M1405.2 319.25H1403.67V326.15H1405.2V319.25Z" fill="#FFD1B0"></path>
    <path d="M1408.65 319.25H1407.12V326.15H1408.65V319.25Z" fill="#FFD1B0"></path>
    <path d="M1412.1 319.25H1410.57V326.15H1412.1V319.25Z" fill="#FFD1B0"></path>
    <path d="M1444.69 319.25H1443.15V326.15H1444.69V319.25Z" fill="#FFD1B0"></path>
    <path d="M1448.13 319.25H1446.6V326.15H1448.13V319.25Z" fill="#FFD1B0"></path>
    <path d="M1430.88 329.6H1429.35V336.116H1430.88V329.6Z" fill="#FFD1B0"></path>
    <path d="M1434.33 329.6H1432.8V336.116H1434.33V329.6Z" fill="#FFD1B0"></path>
    <path d="M1437.78 329.6H1436.25V336.116H1437.78V329.6Z" fill="#FFD1B0"></path>
    <path d="M1441.23 329.6H1439.7V336.116H1441.23V329.6Z" fill="#FFD1B0"></path>
    <path d="M1444.69 329.6H1443.15V336.116H1444.69V329.6Z" fill="#FFD1B0"></path>
    <path d="M1448.13 329.6H1446.6V336.116H1448.13V329.6Z" fill="#FFD1B0"></path>
    <path d="M1430.88 339.566H1429.35V346.466H1430.88V339.566Z" fill="#FFD1B0"></path>
    <path d="M1434.33 339.566H1432.8V346.466H1434.33V339.566Z" fill="#FFD1B0"></path>
    <path d="M1437.78 339.566H1436.25V346.466H1437.78V339.566Z" fill="#FFD1B0"></path>
    <path d="M1441.23 339.566H1439.7V346.466H1441.23V339.566Z" fill="#FFD1B0"></path>
    <path d="M1444.69 339.566H1443.15V346.466H1444.69V339.566Z" fill="#FFD1B0"></path>
    <path d="M1448.13 339.566H1446.6V346.466H1448.13V339.566Z" fill="#FFD1B0"></path>
    <path d="M1430.88 349.916H1429.35V356.432H1430.88V349.916Z" fill="#FFD1B0"></path>
    <path d="M1434.33 349.916H1432.8V356.432H1434.33V349.916Z" fill="#FFD1B0"></path>
    <path d="M1437.78 349.916H1436.25V356.432H1437.78V349.916Z" fill="#FFD1B0"></path>
    <path d="M1441.23 349.916H1439.7V356.432H1441.23V349.916Z" fill="#FFD1B0"></path>
    <path d="M1444.69 349.916H1443.15V356.432H1444.69V349.916Z" fill="#FFD1B0"></path>
    <path d="M1448.13 349.916H1446.6V356.432H1448.13V349.916Z" fill="#FFD1B0"></path>
    <path d="M1430.88 359.883H1429.35V366.783H1430.88V359.883Z" fill="#FFD1B0"></path>
    <path d="M1434.33 359.883H1432.8V366.783H1434.33V359.883Z" fill="#FFD1B0"></path>
    <path d="M1437.78 359.883H1436.25V366.783H1437.78V359.883Z" fill="#FFD1B0"></path>
    <path d="M1441.23 359.883H1439.7V366.783H1441.23V359.883Z" fill="#FFD1B0"></path>
    <path d="M1444.69 359.883H1443.15V366.783H1444.69V359.883Z" fill="#FFD1B0"></path>
    <path d="M1448.13 359.883H1446.6V366.783H1448.13V359.883Z" fill="#FFD1B0"></path>
    <path d="M526.633 173.971C521.713 173.971 517.113 171.88 513.898 168.181C510.968 171.076 507.007 172.738 502.868 172.738C494.201 172.738 487.149 165.643 487.149 156.922C487.149 148.201 494.201 141.106 502.868 141.106C507.007 141.106 510.968 142.751 513.898 145.646C517.113 141.946 521.695 139.855 526.633 139.855C532.601 139.855 538.036 142.947 541.109 148.022C543.418 145.717 546.544 144.413 549.847 144.413C556.703 144.413 562.28 150.024 562.28 156.922C562.28 163.82 556.703 169.414 549.847 169.414C546.544 169.414 543.435 168.109 541.109 165.804C538.036 170.879 532.601 173.971 526.633 173.971ZM513.951 165.947C513.951 165.947 513.969 165.947 513.987 165.947C514.253 165.947 514.502 166.09 514.662 166.287C517.557 170.039 521.926 172.184 526.651 172.184C532.37 172.184 537.556 169.003 540.167 163.874C540.309 163.606 540.558 163.427 540.86 163.391C541.162 163.356 541.446 163.481 541.641 163.713C543.666 166.197 546.668 167.627 549.865 167.627C555.744 167.627 560.522 162.82 560.522 156.922C560.522 151.025 555.744 146.2 549.865 146.2C546.668 146.2 543.666 147.629 541.641 150.113C541.446 150.346 541.162 150.471 540.86 150.435C540.558 150.399 540.309 150.221 540.167 149.953C537.556 144.824 532.388 141.643 526.669 141.643C521.944 141.643 517.575 143.787 514.697 147.54C514.538 147.754 514.289 147.88 514.023 147.88C513.721 147.915 513.507 147.772 513.33 147.576C510.683 144.591 506.9 142.876 502.922 142.876C495.231 142.876 488.979 149.166 488.979 156.904C488.979 164.642 495.231 170.933 502.922 170.933C506.9 170.933 510.683 169.217 513.33 166.233C513.507 166.036 513.738 165.929 513.987 165.929L513.951 165.947Z" fill="#FFD1B0"></path>
    <path d="M983.007 115.214C983.007 119.655 979.4 123.261 974.958 123.261C972.452 123.261 970.213 122.124 968.738 120.33C966.89 123.954 963.105 126.423 958.769 126.423C955.18 126.423 951.964 124.735 949.92 122.089C948.036 124.22 945.264 125.552 942.19 125.552C936.468 125.552 931.848 120.916 931.848 115.214C931.848 109.512 936.468 104.876 942.19 104.876C945.264 104.876 948.019 106.208 949.92 108.34C951.964 105.711 955.162 104.006 958.769 104.006C963.123 104.006 966.89 106.475 968.738 110.099C970.213 108.305 972.452 107.168 974.958 107.168C979.4 107.168 983.007 110.774 983.007 115.214Z" fill="#233187"></path>
    <path d="M958.77 127.31C955.359 127.31 952.16 125.907 949.868 123.42C947.789 125.356 945.052 126.457 942.191 126.457C935.99 126.457 930.961 121.413 930.961 115.231C930.961 109.05 936.007 104.005 942.191 104.005C945.052 104.005 947.806 105.106 949.868 107.042C952.142 104.556 955.341 103.152 958.753 103.152C962.893 103.152 966.678 105.231 968.899 108.659C970.534 107.149 972.684 106.314 974.941 106.314C979.863 106.314 983.879 110.329 983.879 115.249C983.879 120.169 979.863 124.184 974.941 124.184C972.684 124.184 970.534 123.331 968.899 121.839C966.678 125.267 962.893 127.345 958.753 127.345L958.77 127.31ZM949.921 121.217C949.921 121.217 949.939 121.217 949.957 121.217C950.223 121.217 950.472 121.359 950.632 121.555C952.604 124.095 955.572 125.534 958.77 125.534C962.662 125.534 966.18 123.384 967.957 119.921C968.099 119.654 968.348 119.476 968.65 119.441C968.952 119.405 969.237 119.53 969.432 119.761C970.801 121.413 972.808 122.372 974.959 122.372C978.903 122.372 982.12 119.157 982.12 115.213C982.12 111.27 978.903 108.055 974.959 108.055C972.808 108.055 970.801 109.014 969.432 110.666C969.237 110.897 968.952 111.004 968.65 110.986C968.348 110.95 968.099 110.773 967.957 110.506C966.18 107.042 962.662 104.893 958.77 104.893C955.554 104.893 952.586 106.35 950.632 108.872C950.472 109.085 950.223 109.21 949.957 109.21C949.708 109.245 949.441 109.103 949.264 108.908C947.469 106.9 944.892 105.746 942.209 105.746C937.002 105.746 932.755 109.991 932.755 115.196C932.755 120.4 937.002 124.646 942.209 124.646C944.91 124.646 947.469 123.491 949.264 121.484C949.424 121.288 949.672 121.182 949.921 121.182V121.217Z" fill="#FFD1B0"></path>
    <path d="M1413.79 182.004C1409 182.004 1404.54 180.083 1401.25 176.704C1398.3 179.318 1394.46 180.794 1390.48 180.794C1381.48 180.794 1374.15 173.432 1374.15 164.38C1374.15 155.328 1381.48 147.965 1390.48 147.965C1394.46 147.965 1398.3 149.441 1401.25 152.055C1404.53 148.659 1409 146.756 1413.79 146.756C1419.6 146.756 1424.92 149.583 1428.18 154.278C1430.51 152.304 1433.46 151.22 1436.58 151.22C1443.79 151.22 1449.67 157.124 1449.67 164.38C1449.67 171.636 1443.79 177.54 1436.58 177.54C1433.46 177.54 1430.51 176.437 1428.18 174.481C1424.92 179.176 1419.61 182.021 1413.79 182.021V182.004ZM1401.34 172.329C1401.34 172.329 1401.38 172.329 1401.39 172.329C1401.93 172.329 1402.4 172.596 1402.74 173.023C1405.41 176.473 1409.44 178.465 1413.79 178.465C1419.08 178.465 1423.86 175.53 1426.25 170.8C1426.51 170.266 1427.04 169.91 1427.63 169.839C1428.25 169.786 1428.81 170.017 1429.18 170.48C1431.01 172.703 1433.69 173.983 1436.56 173.983C1441.83 173.983 1446.11 169.679 1446.11 164.38C1446.11 159.08 1441.83 154.776 1436.56 154.776C1433.69 154.776 1431.01 156.057 1429.18 158.28C1428.81 158.742 1428.23 158.991 1427.63 158.92C1427.04 158.849 1426.51 158.493 1426.25 157.96C1423.84 153.247 1419.07 150.313 1413.79 150.313C1409.44 150.313 1405.41 152.287 1402.76 155.755C1402.44 156.164 1401.94 156.43 1401.41 156.448C1400.9 156.466 1400.39 156.252 1400.03 155.861C1397.61 153.122 1394.12 151.558 1390.48 151.558C1383.42 151.558 1377.69 157.319 1377.69 164.415C1377.69 171.511 1383.42 177.273 1390.48 177.273C1394.12 177.273 1397.59 175.708 1400.01 172.969C1400.35 172.596 1400.83 172.365 1401.34 172.365V172.329Z" fill="#FFD1B0"></path>
    <path d="M91.0487 124.14C83.0156 124.14 75.5512 120.648 70.4149 114.52C65.723 119.366 59.2538 122.127 52.5003 122.127C38.7444 122.127 27.5478 110.904 27.5478 97.1159C27.5478 83.3277 38.7444 72.1048 52.5003 72.1048C59.2716 72.1048 65.7408 74.866 70.4149 79.7114C75.5334 73.5834 82.9978 70.0918 91.031 70.0918C100.752 70.0918 109.603 75.2579 114.402 83.6484C118.098 79.6936 123.235 77.4669 128.691 77.4669C139.496 77.4669 148.294 86.2849 148.294 97.1159C148.294 107.947 139.496 116.765 128.691 116.765C123.235 116.765 118.116 114.52 114.42 110.583C109.621 118.974 100.788 124.14 91.0487 124.14ZM70.4683 112.276C70.4683 112.276 70.486 112.276 70.5038 112.276C70.7704 112.276 71.0192 112.418 71.1791 112.614C75.9777 118.814 83.2289 122.359 91.0487 122.359C100.557 122.359 109.141 117.103 113.46 108.624C113.602 108.357 113.851 108.179 114.153 108.143C114.455 108.107 114.739 108.232 114.935 108.464C118.329 112.614 123.341 114.984 128.691 114.984C138.519 114.984 146.517 106.967 146.517 97.1159C146.517 87.2647 138.519 79.2483 128.691 79.2483C123.341 79.2483 118.329 81.6176 114.917 85.7683C114.722 85.9999 114.437 86.1067 114.135 86.0889C113.833 86.0533 113.584 85.8752 113.442 85.608C109.123 77.1462 100.539 71.891 91.0487 71.891C83.2111 71.891 75.9777 75.436 71.1791 81.6354C71.0192 81.8491 70.7704 81.9738 70.5038 81.9738C70.2194 82.0095 69.9884 81.867 69.8107 81.671C65.4209 76.7187 59.1116 73.8862 52.5003 73.8862C39.7219 73.8862 29.325 84.3075 29.325 97.1159C29.325 109.924 39.7219 120.346 52.5003 120.346C59.0939 120.346 65.4031 117.513 69.7929 112.561C69.9706 112.365 70.2017 112.258 70.4505 112.258L70.4683 112.276Z" fill="#FFD1B0"></path>
    <path d="M651.91 47.4742C651.91 47.4742 651.892 47.4742 651.874 47.4742C651.609 47.4742 651.344 47.3314 651.185 47.0992C647.106 41.3851 632.57 37.7424 632.429 37.7067L632.852 35.9746C633.453 36.1175 646.823 39.4745 651.927 45.2064C653.923 43.0458 659.84 37.2424 667.01 35.9746L667.311 37.7246C659.275 39.1531 652.634 47.0814 652.563 47.1528C652.386 47.3492 652.139 47.4742 651.892 47.4742H651.91Z" fill="#FFD1B0"></path>
    <path d="M1194.04 155.572C1194.04 155.572 1194.03 155.572 1194.01 155.572C1193.74 155.572 1193.48 155.434 1193.32 155.209C1192.09 153.57 1187.86 152.276 1186.33 151.896L1186.75 150.222C1187.3 150.36 1191.79 151.465 1194.04 153.432C1195.09 152.414 1197.26 150.654 1199.82 150.205L1200.13 151.896C1197.17 152.397 1194.74 155.209 1194.7 155.244C1194.52 155.434 1194.28 155.554 1194.03 155.554L1194.04 155.572Z" fill="#FFD1B0"></path>
    <path d="M1182.48 158.256C1182.48 158.256 1182.46 158.256 1182.44 158.256C1182.17 158.256 1181.9 158.115 1181.74 157.887C1181.05 156.956 1178.54 156.077 1177.13 155.743L1177.56 154.039C1177.94 154.127 1180.81 154.847 1182.48 156.13C1183.28 155.409 1184.71 154.32 1186.4 154.039L1186.71 155.761C1185.13 156.024 1183.62 157.43 1183.17 157.939C1182.99 158.133 1182.73 158.256 1182.48 158.256Z" fill="#FFD1B0"></path>
    <path d="M512.977 253.318H512.942C512.674 253.318 512.406 253.175 512.245 252.943C508.121 247.229 493.425 243.586 493.282 243.55L493.711 241.818C494.318 241.961 507.835 245.318 512.995 251.05C515.013 248.89 520.995 243.086 528.244 241.818L528.548 243.568C520.405 244.997 513.709 252.925 513.638 252.997C513.459 253.193 513.209 253.318 512.959 253.318H512.977Z" fill="#FFD1B0"></path>
    <path d="M914.382 342.348V430.931L978.726 414.519L914.382 342.348Z" fill="#233187"></path>
    <path d="M914.382 432.708C913.991 432.708 913.6 432.584 913.298 432.335C912.871 431.998 912.605 431.483 912.605 430.932V342.348C912.605 341.602 913.067 340.945 913.742 340.696C914.435 340.43 915.217 340.625 915.697 341.176L980.041 413.347C980.45 413.808 980.592 414.448 980.414 415.052C980.237 415.638 979.757 416.1 979.153 416.26L914.808 432.673C914.666 432.708 914.524 432.726 914.364 432.726L914.382 432.708ZM916.159 347.02V428.658L975.457 413.524L916.159 347.02Z" fill="#FFD1B0"></path>
    <path d="M881.028 415.69L914.382 430.931V361.957L881.028 415.69Z" fill="#233187"></path>
    <path d="M914.382 432.707C914.133 432.707 913.884 432.654 913.635 432.547L880.282 417.307C879.82 417.094 879.464 416.703 879.322 416.206C879.18 415.726 879.251 415.193 879.518 414.749L912.871 361.016C913.298 360.341 914.097 360.021 914.861 360.252C915.626 360.465 916.159 361.176 916.159 361.958V430.931C916.159 431.535 915.857 432.103 915.341 432.423C915.057 432.601 914.719 432.707 914.382 432.707ZM883.605 414.927L912.605 428.178V368.192L883.605 414.909V414.927Z" fill="#FFD1B0"></path>
  </g>
  <defs>
    <clipPath id="clip0_1389_20618">
      <rect width="1503" height="530.132" fill="white" transform="translate(-10 -18.6074)"></rect>
    </clipPath>
  </defs>
</svg>
